<?xml version="1.0" encoding="UTF-8" standalone="no"?>
<!-- Created with Inkscape (http://www.inkscape.org/) -->

<svg
   version="1.1"
   id="svg1"
   width="784"
   height="248"
   viewBox="0 0 784 248"
   sodipodi:docname="SVG_LOGO.svg"
   inkscape:version="1.4.3 (0d15f75, 2025-12-25)"
   xmlns:inkscape="http://www.inkscape.org/namespaces/inkscape"
   xmlns:sodipodi="http://sodipodi.sourceforge.net/DTD/sodipodi-0.dtd"
   xmlns="http://www.w3.org/2000/svg"
   xmlns:svg="http://www.w3.org/2000/svg">
  <defs
     id="defs1" />
  <sodipodi:namedview
     id="namedview1"
     pagecolor="#ffffff"
     bordercolor="#000000"
     borderopacity="0.25"
     inkscape:showpageshadow="2"
     inkscape:pageopacity="0.0"
     inkscape:pagecheckerboard="0"
     inkscape:deskcolor="#d1d1d1"
     inkscape:zoom="1.5991076"
     inkscape:cx="179.78778"
     inkscape:cy="283.90836"
     inkscape:window-width="1920"
     inkscape:window-height="990"
     inkscape:window-x="-9"
     inkscape:window-y="-9"
     inkscape:window-maximized="1"
     inkscape:current-layer="g1" />
  <g
     inkscape:groupmode="layer"
     inkscape:label="Image"
     id="g1">
    <path
       style="fill:#0e70f4"
       d="m 246.56165,187.85079 c -1.65,-0.42834 -7.9725,-0.83204 -14.05,-0.89712 -11.41915,-0.12226 -13.45,-0.78551 -13.45,-4.39255 0,-1.03083 2.41394,-4.42833 5.36432,-7.55 2.95038,-3.12167 5.91762,-6.7376 6.59387,-8.03541 1.14026,-2.1883 0.80318,-2.77428 -4.64182,-8.06939 -10.16508,-9.88524 -28.58112,-21.01578 -41.44129,-25.04686 -11.65675,-3.65386 -14.87508,-2.33126 -14.87508,6.11307 0,6.1745 -0.98838,6.55752 -3.00391,9.16559 -0.96208,1.24492 -3.373,3.81393 -4.46371,4.7902 -1.55276,1.38986 -11.58965,1.90704 -36.44806,1.90704 -27.04712,0 -28.12543,-0.22334 -32.555646,-6.74298 l -2.528678,-3.72129 V 116.83536 88.29963 l 2.528678,-3.721284 c 4.497186,-6.618207 5.162656,-6.742985 35.961506,-6.742985 25.51076,0 27.88153,0.148985 31.46544,1.977361 5.81629,2.967247 8.2515,7.07298 8.99294,15.161983 0.45162,4.927085 1.19431,7.447965 2.61195,8.865615 2.00413,2.00412 13.94309,7.36065 24.93949,11.18933 15.22425,5.30072 37.81004,19.3314 49.22028,30.5765 5.0202,4.94754 5.49144,4.86377 13.63787,-2.42444 3.6692,-3.28265 5.67176,-4.34635 8.18262,-4.34635 2.56066,0 3.49524,0.51694 4.06781,2.25 0.87922,2.66126 0.70095,20.77358 -0.35678,36.25 l -0.7518,11 -11,0.14711 c -6.05,0.0809 -12.35,-0.20335 -14,-0.63168 z"
       id="path13"
       sodipodi:nodetypes="sssssssssssscccssssssssssscss" />
    <path
       style="fill:#e4223d"
       d="m 242.06165,246.50414 c -10.34393,-4.83591 -11.48206,-8.21984 -11.49219,-34.16878 l -0.008,-20 11,0.18362 c 6.05,0.101 15.28171,0.47833 20.5149,0.83852 8.95234,0.61618 9.63228,0.52537 11.5,-1.53574 1.60399,-1.77007 2.08645,-4.10122 2.51299,-12.14223 0.38364,-7.23223 0.93016,-10.20599 2,-10.88257 0.80966,-0.51204 5.81607,-0.93787 11.12536,-0.94629 l 9.65326,0.92272 5.96916,1.68494 4.48395,5.90604 -0.0884,8.56367 c -0.0599,5.80074 -0.0427,50.75817 -1.74588,54.05172 -1.70678,3.30055 -6.51421,6.85561 -9.27068,6.85561 -1.12014,0 -2.31473,0.45 -2.65465,1 -0.91311,1.47744 -50.28511,1.17178 -53.5,-0.33122 z"
       id="path11"
       sodipodi:nodetypes="cccsssssscccsssscc" />
    <path
       style="fill:#355b84"
       d="m 103.2317,247.58282 c -0.41339,-0.18131 -1.94268,-1.10106 -3.57188,-1.93548 -1.6292,-0.83441 -4.662891,-3.10372 -6.194729,-5.66192 l -3.011454,-5.02917 -0.663283,-28.3938 0.110547,-28.33853 3.916714,-4.96384 c 5.464665,-6.92564 4.347654,-6.18505 36.578215,-6.18822 27.32374,-0.003 29.8545,0.50065 32.97142,2.40099 1.91004,1.16452 4.28536,3.85962 5.39386,6.30153 1.73514,3.82234 2.14311,7.09018 2.16296,30.8431 0.0243,29.09152 -0.40013,30.87804 -6.29249,36.0516 -4.48692,3.93957 -6.10994,4.76834 -10.58906,4.8195 -2.29293,0.0262 -10.93877,0.37243 -13.14101,0.35182 -3.97912,-0.0372 -13.11913,-0.12515 -17.50381,-0.0597 -2.74852,0.041 -3.22724,-0.1248 -5.14161,-0.11054 -2.48363,0.0185 -13.70464,0.49154 -15.02439,-0.0873 z m -74.277929,-4.1018 C 21.236993,240.30663 16.765542,237.40108 13.003868,233.11677 9.155134,228.73331 4.2659891,218.76258 3.4157742,213.5632 3.0765163,211.48851 2.4080501,209.54945 1.9302938,209.25418 0.5008567,208.37074 0.851043,178.01313 2.3116461,176.19479 c 3.4445584,-4.2882 7.4926389,-7.40212 10.2180329,-7.86004 1.667582,-0.28019 15.181967,-0.39467 30.031967,-0.25441 l 27,0.25502 3.659695,2.79981 c 6.534181,4.9989 6.840305,6.52648 6.840305,34.13344 0,26.31898 1.128551,30.08332 -3.734356,35.37304 -4.643017,5.05054 -10.815014,6.47881 -27.078318,6.47688 -13.375401,-0.002 -15.294696,-1.58049 -20.295201,-3.63751 z M 425.50528,211.97527 c -4.60779,-0.82119 -11.87958,-4.8099 -15.14478,-8.3072 -3.53838,-3.7899 -6.37924,-11.38465 -6.96287,-18.61447 -0.4373,-5.41727 -0.1152,-7.84758 1.66336,-12.5502 2.84664,-7.52669 6.7833,-11.92534 13.70247,-15.31058 4.63075,-2.26562 6.85286,-2.71441 13.23621,-2.67331 12.58331,0.081 21.68782,5.50144 26.13323,15.55857 3.27131,7.40088 3.33179,19.33715 0.13115,25.88456 -6.03408,12.34368 -18.67497,18.5226 -32.75877,16.01263 z m 12.0222,-13.56119 c 4.15766,-1.73718 8.51936,-8.04939 9.23166,-13.35998 0.64889,-4.83789 -2.404,-12.32511 -5.98126,-14.66902 -6.90471,-4.52414 -14.61954,-3.70175 -19.71492,2.10157 -6.77228,7.7132 -4.17116,20.98005 5.01862,25.59716 4.22213,2.12127 6.9697,2.20055 11.4459,0.33027 z m 106.26757,13.39215 c -7.25436,-1.82295 -12.7916,-6.32119 -16.58239,-13.47087 -2.38224,-4.49307 -2.65101,-6.06454 -2.65101,-15.5 0,-9.76519 0.19954,-10.83316 2.85128,-15.26068 5.49948,-9.18227 12.15944,-12.74907 23.76474,-12.7274 5.35285,0.01 7.35309,0.54975 12.38398,3.34171 7.96079,4.41794 11.51492,9.96309 12.24924,19.11124 0.43423,5.40959 0.21037,6.92228 -1.26584,8.55348 -1.64876,1.82186 -3.11391,1.98165 -18.16977,1.98165 -13.94756,0 -16.46561,0.23248 -16.97789,1.56746 -0.87137,2.27076 1.55031,6.199 5.21957,8.46672 4.31548,2.66712 12.25004,2.61593 17.60025,-0.11354 5.00245,-2.55206 8.51975,-1.90483 9.93933,1.82894 1.58973,4.18132 -0.31849,7.00562 -6.71049,9.93197 -6.22138,2.84825 -15.51586,3.83102 -21.651,2.28932 z m 17.87499,-36.39273 c 0.81418,-2.12172 -1.28921,-5.36173 -4.58837,-7.06779 -3.88625,-2.00965 -9.73396,-1.90851 -13.94513,0.2412 -4.46103,2.27727 -5.8851,4.56728 -4.14446,6.66463 1.82459,2.19849 21.84161,2.34145 22.67796,0.16196 z m -220.60839,34.42186 c -1.92003,-1.92003 -2,-3.33333 -2,-35.34501 0,-31.03412 0.12674,-33.45971 1.82874,-35 2.37456,-2.14895 8.51203,-2.15272 10.29882,-0.006 0.95058,1.1419 1.52613,5.80469 1.87244,15.16952 0.28439,7.6905 0.93121,13.65381 1.5,13.82917 0.55,0.16957 8.397,-6.88171 17.43778,-15.66952 15.3638,-14.93422 16.68536,-15.97816 20.22695,-15.97816 2.8936,0 4.15992,0.56584 5.35785,2.39411 0.94746,1.44601 1.32622,3.36012 0.95644,4.83346 -0.33673,1.34164 -5.53226,7.34411 -11.54563,13.33883 -6.01336,5.99472 -10.93339,11.3156 -10.93339,11.82417 0,0.50858 1.74409,3.21625 3.87575,6.01706 10.63303,13.97079 18.17266,25.33351 18.70985,28.19698 0.32861,1.75164 0.0933,4.12687 -0.52293,5.27829 -1.37784,2.57452 -5.46616,3.71172 -8.9531,2.49038 -2.35811,-0.82596 -10.60042,-11.00216 -20.83896,-25.7284 -1.77617,-2.55468 -3.80117,-4.63726 -4.5,-4.62794 -0.69884,0.009 -3.40811,2.02204 -6.02061,4.4727 l -4.75,4.45576 v 8.39244 c 0,6.97621 -0.34975,8.83708 -2.07258,11.0273 -2.53576,3.2237 -7.0499,3.51238 -9.92742,0.63486 z m 133.01426,0.21263 c -2.19611,-1.7783 -2.20808,-1.96781 -2.36078,-37.38673 -0.14538,-33.72074 -0.053,-35.71088 1.75151,-37.71263 2.52083,-2.79645 7.66181,-2.80141 10.19002,-0.01 1.7131,1.89155 1.94042,4.13285 2.25675,22.25 0.19347,11.08061 0.0313,27.05878 -0.36046,35.50703 -0.60908,13.13597 -0.98587,15.63411 -2.60176,17.25 -2.37722,2.37722 -6.01401,2.41909 -8.87528,0.10217 z m 28.05832,-0.84749 c -2.00636,-2.55067 -2.07258,-3.74388 -2.07258,-37.34501 0,-31.78983 0.14724,-34.84284 1.75,-36.28723 3.0662,-2.76322 6.53378,-3.04882 9.00979,-0.74206 2.23893,2.08588 2.24021,2.10737 2.24021,37.54812 0,34.12771 -0.0752,35.53624 -2,37.46104 -2.79084,2.79084 -6.43671,2.53157 -8.92742,-0.63486 z m 87.14993,1.07816 c -2.1954,-1.53772 -2.22232,-1.85797 -2.2072,-26.25 0.008,-13.58132 0.34592,-25.18843 0.75,-25.7936 2.44475,-3.66134 8.79414,-3.99274 12.50055,-0.65245 1.62358,1.46321 2.14727,1.39819 6.5,-0.80697 8.14413,-4.12595 19.377,-2.85986 24.46017,2.75699 3.90789,4.31817 4.77397,9.73741 4.77397,29.87175 0,18.82861 -0.0563,19.35697 -2.22251,20.87428 -2.97791,2.08581 -6.36994,1.96425 -8.64397,-0.30978 -1.62424,-1.62424 -1.93011,-3.99272 -2.35683,-18.25 -0.30725,-10.26554 -0.96898,-17.39244 -1.77208,-19.08533 -2.70557,-5.70319 -12.49134,-7.31146 -17.00764,-2.79516 -3.01263,3.01263 -3.90198,8.49303 -3.89351,23.99266 0.007,13.66544 -0.11616,14.59617 -2.15855,16.25 -2.67864,2.16903 -5.80663,2.2399 -8.7224,0.19761 z M 10.382499,155.32822 C 8.737735,154.63665 6.4225821,152.78034 5.2377155,151.20309 4.0528489,149.62584 2.6285151,147.79185 2.0725293,147.12757 0.8892172,145.71376 0.6403029,87.835361 1.8175347,87.835361 c 0.4157388,0 1.3713559,-1.390437 2.1235938,-3.08986 0.7522378,-1.699423 2.7745879,-3.947741 4.4941115,-4.996262 2.877465,-1.754604 5.346518,-1.9067 31.008372,-1.91014 26.81456,-0.0036 28.015548,0.07882 31.371285,2.152779 1.919125,1.186085 4.78474,4.199186 6.368034,6.695781 l 2.878715,4.539263 v 27.301338 27.30134 l -3.674849,4.06762 c -6.294978,6.96778 -6.063324,6.92414 -36.093841,6.79984 -19.14434,-0.0793 -27.783754,-0.47463 -29.910457,-1.36884 z M 247.05036,132.08536 c -10.41941,-8.93849 -19.32788,-14.79968 -31.48871,-20.71749 -7.15,-3.4794 -16.05251,-7.31428 -19.78336,-8.52197 -3.73085,-1.2077 -8.11835,-3.31912 -9.75,-4.69207 -2.44861,-2.060363 -2.96664,-3.25312 -2.96664,-6.830637 0,-3.251312 0.6755,-5.137166 2.70331,-7.547081 4.75223,-5.647703 6.53018,-5.940908 36.01457,-5.939197 30.99521,0.0018 32.17535,0.264065 36.0209,8.005044 1.99127,4.008345 2.31256,6.627972 2.90602,23.693981 l 0.66724,19.18738 -3.55602,3.55602 c -1.95581,1.95581 -4.19502,3.55602 -4.97602,3.55602 -0.781,0 -3.38708,-1.6875 -5.79129,-3.75 z m 209.29292,-23.29133 c -11.67574,-2.33489 -19.28746,-13.48854 -19.27605,-28.245689 0.007,-8.769117 1.06776,-12.860234 4.90389,-18.909173 2.32001,-3.658277 4.31182,-5.284513 9.51249,-7.766562 3.61792,-1.726675 6.57804,-3.356382 6.57804,-3.621571 0,-0.265189 -1.14801,-2.747645 -2.55113,-5.51657 -2.12618,-4.195819 -2.43481,-5.810035 -1.85285,-9.690824 1.68877,-11.261568 13.74782,-13.973283 18.65243,-4.194369 2.37578,4.736896 2.20231,7.84045 -0.74845,13.390064 -1.375,2.58602 -2.5,5.360323 -2.5,6.165118 0,0.804795 1.61057,2.231292 3.57905,3.169993 3.3778,1.61076 3.74784,1.60985 6.58104,-0.01618 3.95678,-2.270879 7.1178,-2.178314 9.33657,0.273406 1.62414,1.794646 1.81658,4.294895 1.90499,24.75 0.0541,12.514528 -0.25172,24.007107 -0.67958,25.539057 -1.14929,4.11501 -5.04286,5.27059 -9.65633,2.86591 -3.50787,-1.8284 -3.79473,-1.83479 -7.11054,-0.15843 -4.41479,2.23197 -11.28956,3.04251 -16.67357,1.96582 z M 472.1209,94.132052 c 4.12957,-3.474802 5.94169,-7.905007 5.93701,-14.514572 -0.0128,-18.132962 -22.458,-21.673881 -27.98912,-4.415527 -1.59748,4.984509 -0.77747,10.885419 2.09527,15.077921 3.1738,4.631848 6.62376,6.497862 12.07086,6.528878 3.64367,0.02075 5.3811,-0.56898 7.88598,-2.6767 z m -4.71103,-54.114469 c 0.1702,-1.459349 -0.28317,-5.861638 -1.18962,-6.613951 -1.34475,-1.116041 -3.74027,-1.344647 -5.1072,0.02229 -1.34877,1.348767 -1.70021,5.11343 -0.71517,7.275347 1.51306,3.320815 6.59625,2.881166 7.01202,-0.683684 z m 169.64531,68.935887 c -11.22301,-3.64874 -17.8113,-12.839027 -18.76563,-26.17696 -0.90597,-12.662103 4.15921,-23.121138 13.71277,-28.315368 4.78733,-2.602849 5.96024,-2.828294 12.42289,-2.387796 3.92504,0.267533 8.8141,1.302083 10.86457,2.299001 3.49056,1.697074 3.84605,1.705855 5.57874,0.137796 1.01784,-0.92113 3.48685,-1.674782 5.48669,-1.674782 5.82793,0 6.08756,1.248713 5.8105,27.945846 -0.13383,12.895216 -0.65012,24.205953 -1.14731,25.134973 -1.38803,2.59355 -5.41634,3.14453 -9.33343,1.27659 -3.26926,-1.559 -3.69839,-1.54842 -7.29841,0.17992 -4.20554,2.01905 -13.40301,2.85794 -17.33138,1.58078 z M 651.4413,95.450093 c 4.22646,-1.76593 7.53717,-7.116787 8.27906,-13.380846 1.56919,-13.249405 -10.70405,-22.721311 -20.70676,-15.980488 -5.06021,3.410072 -7.43967,8.223422 -7.34941,14.866911 0.1658,12.20318 9.27784,18.8813 19.77711,14.494423 z m 93.4409,13.049677 c -13.42618,-3.78561 -21.607,-18.238582 -19.01978,-33.602068 1.25433,-7.448514 4.62277,-12.876816 11.01671,-17.753639 5.43585,-4.146061 11.07998,-5.659004 18.81885,-5.044506 7.33837,0.582697 15.17692,4.482034 19.50358,9.702182 4.15641,5.014746 6.20378,12.804599 5.63873,21.454238 -0.513,7.852925 -2.89762,13.544522 -7.67736,18.324263 -6.6582,6.65819 -18.73112,9.61211 -28.28073,6.91953 z m 15.88911,-13.628918 c 4.81794,-2.937651 7.61027,-9.164056 7.06399,-15.751483 -0.4963,-5.984675 -2.61549,-9.52015 -7.8656,-13.122311 -2.6399,-1.811265 -4.34538,-2.23571 -7.56671,-1.883132 -5.0056,0.547868 -9.78509,3.745093 -11.99929,8.026869 -2.26231,4.37484 -2.10459,12.704149 0.31916,16.854177 4.29335,7.351239 13.29965,9.990838 20.04845,5.87588 z m -419.39935,11.551588 -2.81031,-2.42074 0.24881,-30.333171 c 0.13684,-16.683243 0.24934,-31.120668 0.25,-32.083168 6.5e-4,-0.9625 0.90119,-2.65 2.00119,-3.75 1.86563,-1.865625 3.33333,-2 21.84501,-2 17.95554,0 20.00259,0.174118 21.5,1.828741 0.91025,1.005807 1.65499,2.961063 1.65499,4.345012 0,4.712423 -2.30699,5.508905 -17.90502,6.181659 -7.92276,0.341715 -14.65254,0.868812 -14.95505,1.171328 -0.30252,0.302516 -0.73537,3.460752 -0.9619,7.018302 -0.26957,4.233496 0.0163,6.98422 0.8275,7.961615 0.98146,1.182598 3.91169,1.493343 14.08173,1.493343 11.67342,0 12.9366,0.176062 13.87756,1.934259 1.64413,3.072087 1.21025,6.597327 -1.06546,8.656815 -1.75676,1.589848 -4.00763,1.955904 -13.75,2.236147 -9.24519,0.265941 -11.90733,0.667361 -12.89936,1.945068 -0.8285,1.067094 -1.25,5.358836 -1.25,12.727711 0,12.030789 -0.62574,13.825399 -5.18969,14.883969 -2.00302,0.46459 -3.40714,0.006 -5.5,-1.79689 z m 164.93969,0.89089 c -2.23037,-1.57749 -2.25,-1.80838 -2.25,-26.463244 0,-21.277456 0.2271,-25.098966 1.57143,-26.443296 2.19234,-2.192337 6.66613,-1.959006 9.80684,0.511477 l 2.64798,2.082906 5.18322,-2.582906 c 12.36208,-6.160284 25.49053,-0.713664 27.86147,11.55893 0.46308,2.39699 0.86156,11.795536 0.88551,20.885658 0.0507,19.245685 -0.51665,20.972505 -6.89071,20.972505 -6.11598,0 -6.50169,-1.11372 -7.06574,-20.402052 -0.31607,-10.808353 -0.95206,-17.886932 -1.72889,-19.242763 -1.54625,-2.698704 -6.46983,-4.46544 -10.30616,-3.698175 -3.39985,0.67997 -7.8019,4.71357 -8.45751,7.749612 -0.24863,1.151358 -0.57701,8.940556 -0.72975,17.309329 -0.2981,16.334079 -0.66498,17.524889 -5.77769,18.752919 -1.53801,0.36941 -3.36579,-0.0119 -4.75,-0.9909 z m 75.29471,-0.72797 c -1.58408,-1.38857 -5.66998,-9.332887 -10.67207,-20.749999 -11.46532,-26.169245 -11.51132,-26.302841 -10.11277,-29.372314 0.64466,-1.414881 2.35159,-2.868541 3.79317,-3.230355 4.706,-1.18113 7.40931,2.110839 13.62625,16.593465 3.13918,7.312852 6.1528,13.741296 6.69694,14.285432 0.54413,0.544135 1.58208,0.75568 2.30655,0.470098 0.72447,-0.285581 3.94247,-7.056374 7.1511,-15.046206 5.11615,-12.739747 6.19819,-14.677869 8.79506,-15.753528 2.22363,-0.921058 3.57264,-0.947962 5.41612,-0.108015 4.33219,1.973878 3.32734,6.539831 -6.18168,28.089147 -10.23971,23.205185 -10.98333,24.578085 -14.0757,25.987065 -3.28065,1.49476 -3.81405,1.40262 -6.74297,-1.16479 z m 107.23355,1.56612 c -2.93834,-0.77119 -3.7669,-7.05939 -3.77268,-28.63186 -0.007,-24.65768 0.55833,-26.634362 7.62198,-26.668946 1.72015,-0.0084 3.68775,0.659687 4.37244,1.484687 1.6693,2.011383 3.18384,1.893304 8.01509,-0.624881 3.09794,-1.614741 5.19143,-1.999231 8.71998,-1.601513 4.94757,0.557663 7.26493,2.555277 7.26493,6.262536 0,3.230483 -3.0693,5.386921 -8.57308,6.023295 -8.21072,0.949364 -9.33239,1.366912 -11.16427,4.155957 -1.44763,2.204024 -1.85201,5.702372 -2.26265,19.574605 -0.48115,16.25426 -0.58899,16.96294 -2.86078,18.80048 -2.31188,1.86996 -3.89906,2.13423 -7.36096,1.22564 z m -291.99308,-2.56612 c -1.88831,-3.30592 -2.37659,-41.841844 -0.5984,-47.226975 1.77127,-5.364156 5.13169,-6.597046 10.45774,-3.836799 l 3.85548,1.998117 4.40728,-2.342171 c 5.76888,-3.065763 11.05442,-3.07629 13.91841,-0.02772 2.73852,2.915028 2.77175,6.088107 0.0918,8.768041 -1.767,1.767001 -2.81593,1.98162 -6.92374,1.416651 -4.55176,-0.626026 -5.07004,-0.456319 -8.66751,2.838113 l -3.82624,3.503953 -0.26798,14.829396 c -0.14739,8.156167 -0.48557,15.810424 -0.7515,17.009464 -0.75075,3.38493 -3.30294,5.31993 -7.01676,5.31993 -2.47161,0 -3.7425,-0.61119 -4.67858,-2.25 z M 102.65151,64.003486 C 98.32484,63.510069 95.46025,61.214784 93.218136,56.444894 91.507541,52.805758 91.154327,49.573107 90.816433,34.464244 90.36889,14.452475 91.05425,11.438779 97.169348,6.5289156 99.03511,5.030878 101.10516,3.3619946 101.76944,2.8202858 c 1.57819,-1.2869742 57.29221,-1.337846 57.29221,-0.052313 0,0.5129368 0.90335,1.2193259 2.00745,1.5697535 1.1041,0.3504276 3.5791,2.6954631 5.5,5.2111907 l 3.49255,4.574049 V 33.83128 c 0,18.791124 -0.10487,19.86393 -2.2534,23.052132 -4.53525,6.729857 -5.41498,6.909026 -35.32671,7.194778 -14.80594,0.141444 -28.22945,0.107827 -29.83003,-0.0747 z M 7.7116461,60.539817 c -6.6679057,-6.975994 -6.65,-6.926946 -6.65,-18.215887 0,-5.768713 0.4142451,-10.488569 0.9205447,-10.488569 0.5062996,0 1.2122482,-1.328117 1.5687747,-2.951371 C 4.5914869,24.146527 11.363323,14.553946 15.630191,11.773276 20.120503,8.84699 29.023493,5.1467025 33.811646,4.2166451 c 1.7875,-0.3472064 3.25,-1.0250344 3.25,-1.5062844 0,-0.48125 6.528896,-0.875 14.508659,-0.875 h 14.508659 l 4.241341,3.0670796 c 2.332737,1.6868937 5.478841,4.9046097 6.991341,7.1504807 2.746183,4.077734 2.75,4.108312 2.75,22.031792 0,20.319575 -0.704638,23.118807 -6.875053,27.311713 l -3.589216,2.438935 H 40.229511 10.861646 Z M 189.48161,61.949683 c -5.73219,-3.495485 -6.41996,-6.609228 -6.41996,-29.065111 0,-21.989761 0.27334,-23.302876 5.89081,-28.2992113 l 3.09187,-2.75 h 17.50866 c 9.62976,0 17.50866,0.3452889 17.50866,0.7673087 0,0.4220197 2.64503,1.8179109 5.87784,3.1019803 6.61506,2.6274983 15.60338,9.2729343 19.56209,14.4630623 3.97002,5.204972 6.79673,14.172297 7.32291,23.230893 0.39509,6.801908 0.14178,8.703394 -1.61934,12.155474 -1.14824,2.250727 -3.28594,5.034767 -4.75046,6.186756 -2.5646,2.017316 -3.73601,2.094388 -31.7779,2.090788 -26.72199,-0.0034 -29.36831,-0.158119 -32.19518,-1.88194 z"
       id="path10"
       sodipodi:nodetypes="ssscccscsssssssssssssssscssscssssssssssssssssssssssssssssssssssssscscsscsssssssssscscssscssssssccssssssssssssssssssscssssssssssscccscsssssssssscssssssssssssssssssssssssssssssssssssssssssssssssssscsssssscssssscsssssssssssssssssscsssscssssssssssssssssssssssssssssssssssssssscssssscsssssssssssscssssssssssssscsssscccsssscsssssssssss" />
  </g>
</svg>
